name rise42.5664peak47.7979fall81.9185.mot
datacolumns 19
datarows 18
range 7.61163600000000 7.63996700000000
endheader
time	ground_force1_vx	ground_force1_vy	ground_force1_vz	ground_force1_px	ground_force1_py	ground_force1_pz	ground_force2_vx	ground_force2_vy	ground_force2_vz	ground_force2_px	ground_force2_py	ground_force2_pz	ground_torque1_x	ground_torque1_y	ground_torque1_z	ground_torque2_x	ground_torque2_y	ground_torque2_z	
7.61163600000000	-43.63048800000000	808.35870100000000	48.23728500000000	0.08827700000000	0.00000000000000	0.09963500000000	0.00000000000000	0.00000000000000	0.00000000000000	0.00000000000000	0.00000000000000	0.00000000000000	0.00000000000000	16.54477600000000	0.00000000000000	0.00000000000000	0.00000000000000	0.00000000000000	
7.61330400000000	-44.23637900000000	807.43911200000002	48.21694400000000	0.08744400000000	0.00000000000000	0.09963800000000	0.00000000000000	0.00000000000000	0.00000000000000	0.00000000000000	0.00000000000000	0.00000000000000	0.00000000000000	16.52856600000000	0.00000000000000	0.00000000000000	0.00000000000000	0.00000000000000	
7.61497000000000	-44.85586300000000	806.41640400000006	48.17820900000000	0.08661400000000	0.00000000000000	0.09963800000000	0.00000000000000	0.00000000000000	0.00000000000000	0.00000000000000	0.00000000000000	0.00000000000000	0.00000000000000	16.51335000000000	0.00000000000000	0.00000000000000	0.00000000000000	0.00000000000000	
7.61663800000000	-45.48900900000000	805.28766700000006	48.12043700000000	0.08578800000000	0.00000000000000	0.09963500000000	-1.61469200000000	3.75283000000000	1.16123500000000	0.00000000000000	0.00000000000000	0.00000000000000	0.00000000000000	16.49919500000000	0.00000000000000	0.00000000000000	0.28874100000000	0.00000000000000	
7.61830100000000	-46.13581900000000	804.04995399999996	48.04300700000000	0.08496600000000	0.00000000000000	0.09962900000000	-2.62355000000000	7.14361800000000	1.99025300000000	0.00000000000000	0.00000000000000	0.00000000000000	0.00000000000000	16.48615600000000	0.00000000000000	0.00000000000000	0.50752500000000	0.00000000000000	
7.61997400000000	-46.79623100000000	802.70028000000002	47.94532400000000	0.08414800000000	0.00000000000000	0.09962000000000	-3.77337800000000	11.22849800000000	2.95586600000000	0.00000000000000	0.00000000000000	0.00000000000000	0.00000000000000	16.47428000000000	0.00000000000000	0.00000000000000	0.76457700000000	0.00000000000000	
7.62163400000000	-47.47010800000000	801.23562300000003	47.82682500000000	0.08333200000000	0.00000000000000	0.09960800000000	-5.03200200000000	15.96075700000000	4.03711100000000	0.00000000000000	0.00000000000000	0.00000000000000	0.00000000000000	16.46360000000000	0.00000000000000	0.00000000000000	1.05495100000000	0.00000000000000	
7.62330600000000	-48.15724300000000	799.65292999999997	47.68697300000000	0.08251900000000	0.00000000000000	0.09959400000000	-6.35853200000000	21.26269100000000	5.20555200000000	0.00000000000000	0.00000000000000	0.00000000000000	0.00000000000000	16.45413600000000	0.00000000000000	0.00000000000000	1.37169300000000	0.00000000000000	
7.62496800000000	-48.85734900000000	797.94911900000000	47.52527000000000	0.08171000000000	0.00000000000000	0.09957600000000	-7.70605400000000	27.03141700000000	6.42716600000000	0.31606400000000	0.00000000000000	-0.06205700000000	0.00000000000000	16.44589800000000	0.00000000000000	0.00000000000000	3.25949400000000	0.00000000000000	
7.62664100000000	-49.57006400000000	796.12108400000000	47.34124800000000	0.08090300000000	0.00000000000000	0.09955600000000	-9.02508200000000	33.14744600000000	7.66487800000000	0.31934500000000	0.00000000000000	-0.06253200000000	0.00000000000000	16.43888200000000	0.00000000000000	0.00000000000000	3.93279400000000	0.00000000000000	
7.62830300000000	-50.29494300000000	794.16569600000003	47.13448000000000	0.08009800000000	0.00000000000000	0.09953200000000	-10.26730500000000	39.48487400000000	8.88141600000000	0.32226100000000	0.00000000000000	-0.06298000000000	0.00000000000000	16.43307100000000	0.00000000000000	0.00000000000000	4.60690800000000	0.00000000000000	
7.62997100000000	-51.03146100000000	792.07981400000006	46.90457900000000	0.07929600000000	0.00000000000000	0.09950500000000	-11.38914200000000	45.92176200000000	10.04208400000000	0.32486200000000	0.00000000000000	-0.06340600000000	0.00000000000000	16.42843400000000	0.00000000000000	0.00000000000000	5.26344500000000	0.00000000000000	
7.63163800000000	-51.77900500000000	789.86028399999998	46.65119800000000	0.07849600000000	0.00000000000000	0.09947500000000	-12.35462800000000	52.34930600000000	11.11710300000000	0.32719200000000	0.00000000000000	-0.06381300000000	0.00000000000000	16.42492700000000	0.00000000000000	0.00000000000000	5.88621000000000	0.00000000000000	
7.63330100000000	-52.53687900000000	787.50395100000003	46.37403400000000	0.07769900000000	0.00000000000000	0.09944200000000	-13.13735900000000	58.67885000000000	12.08328200000000	0.32928400000000	0.00000000000000	-0.06420400000000	0.00000000000000	16.42249300000000	0.00000000000000	0.00000000000000	6.46215300000000	0.00000000000000	
7.63497100000000	-53.30430000000000	785.00765899999999	46.07283100000000	0.07690200000000	0.00000000000000	0.09940500000000	-13.72139600000000	64.84624599999999	12.92492200000000	0.33116900000000	0.00000000000000	-0.06458200000000	0.00000000000000	16.42105900000000	0.00000000000000	0.00000000000000	6.98192900000000	0.00000000000000	
7.63663300000000	-54.08039700000000	782.36826199999996	45.74738000000000	0.07610800000000	0.00000000000000	0.09936500000000	-14.10117400000000	70.81352699999999	13.63396000000000	0.33287300000000	0.00000000000000	-0.06494800000000	0.00000000000000	16.42054000000000	0.00000000000000	0.00000000000000	7.44007100000000	0.00000000000000	
7.63830600000000	-54.86421000000000	779.58262999999999	45.39752100000000	0.07531500000000	0.00000000000000	0.09932300000000	-14.28057800000000	76.56814600000000	14.20947500000000	0.33441500000000	0.00000000000000	-0.06530500000000	0.00000000000000	16.42083500000000	0.00000000000000	0.00000000000000	7.83481500000000	0.00000000000000	
7.63996700000000	-55.65469200000000	776.64765799999998	45.02314600000000	0.07452400000000	0.00000000000000	0.09927600000000	-14.27139600000000	82.12026000000000	14.65668600000000	0.33581400000000	0.00000000000000	-0.06565300000000	0.00000000000000	16.42183100000000	0.00000000000000	0.00000000000000	8.16764000000000	0.00000000000000	
